<svg xmlns="http://www.w3.org/2000/svg" viewBox="0 0 64 64" role="img" aria-label="CREONTE logo icon">
  <defs>
    <linearGradient id="bg" x1="0" y1="0" x2="1" y2="1">
      <stop offset="0%" stop-color="#111" />
      <stop offset="100%" stop-color="#3a3a3a" />
    </linearGradient>
    <linearGradient id="fg" x1="0" y1="0" x2="0" y2="1">
      <stop offset="0%" stop-color="#ffffff" />
      <stop offset="100%" stop-color="#d9d9d9" />
    </linearGradient>
  </defs>
  <rect width="64" height="64" rx="12" fill="url(#bg)" />
  <path d="M18 46V18h8.4c3.2 0 5.7.8 7.6 2.5 1.9 1.7 2.8 3.9 2.8 6.7 0 2-.5 3.8-1.6 5.3-1.1 1.5-2.6 2.6-4.5 3.2L42 46h-6.9l-9.1-12.4h-1.6V46H18zm7.8-17.4h1.9c1.8 0 3.2-.4 4.1-1.2.9-.8 1.4-1.9 1.4-3.3 0-1.4-.4-2.5-1.3-3.3-.9-.8-2.2-1.2-4-1.2h-2.1v9z" fill="url(#fg)"/>
</svg>
