<svg xmlns="http://www.w3.org/2000/svg" viewBox="0 0 64 64" role="img" aria-label="CREONTE C monogram icon">
  <defs>
    <radialGradient id="bgc" cx="50%" cy="42%" r="70%">
      <stop offset="0%" stop-color="#1b1b1b" />
      <stop offset="60%" stop-color="#161616" />
      <stop offset="100%" stop-color="#0d0d0d" />
    </radialGradient>
    <linearGradient id="strokeGrad" x1="0" y1="0" x2="1" y2="1">
      <stop offset="0%" stop-color="#ffffff"/>
      <stop offset="100%" stop-color="#cfcfcf"/>
    </linearGradient>
    <filter id="innerGlow" x="-10%" y="-10%" width="120%" height="120%">
      <feGaussianBlur in="SourceGraphic" stdDeviation="0.6" result="g"/>
      <feBlend in="SourceGraphic" in2="g" mode="screen"/>
    </filter>
  </defs>
  <rect width="64" height="64" rx="14" fill="url(#bgc)" />
  <!-- Stylized classical C (slightly calligraphic, open form) -->
  <path d="M44.8 18.9c-2.4-3.1-6.2-5-11-5-9.2 0-15.6 7.1-15.6 18.1 0 11 6.4 18.1 15.6 18.1 4.7 0 8.6-1.9 11-5.1l-4.2-2.3c-1.7 2.1-4.1 3.1-6.8 3.1-6 0-9.9-5-9.9-13.8 0-8.8 3.9-13.8 9.9-13.8 2.7 0 5.1 1 6.8 3.1l4.2-2.4Z" fill="none" stroke="url(#strokeGrad)" stroke-width="3.2" stroke-linecap="round" stroke-linejoin="round" filter="url(#innerGlow)"/>
  <!-- Subtle accent notch -->
  <path d="M44.8 18.9l-2.1 1.3" stroke="#ffffff" stroke-opacity="0.5" stroke-linecap="round"/>
</svg>
